<svg width="75" height="57" viewBox="0 0 75 57" fill="none" xmlns="http://www.w3.org/2000/svg">
<path d="M3.2 16.8C3.2 12.5333 4.73333 8.79999 7.8 5.6C11 2.4 14.9333 0.799998 19.6 0.799998C24.2667 0.799998 28.2667 2.26666 31.6 5.19999C35.0667 8.13332 36.8 12.5333 36.8 18.4C36.8 24.1333 33.8667 30.8667 28 38.6C22.1333 46.2 16.4 52.2667 10.8 56.8C10.5333 56.9333 10 57 9.2 57C8.4 57 6.8 56.6 4.4 55.8C2 55 0.533334 54.3333 2.38419e-07 53.8C6.26667 46.6 11.7333 39.6667 16.4 33C12.6667 32.3333 9.53333 30.5333 7 27.6C4.46667 24.5333 3.2 20.9333 3.2 16.8ZM40.8 16.8C40.8 12.5333 42.3333 8.79999 45.4 5.6C48.6 2.4 52.5333 0.799998 57.2 0.799998C61.8667 0.799998 65.8667 2.26666 69.2 5.19999C72.6667 8.13332 74.4 12.5333 74.4 18.4C74.4 24.1333 71.4667 30.8667 65.6 38.6C59.7333 46.2 54 52.2667 48.4 56.8C48.1333 56.9333 47.6 57 46.8 57C46 57 44.4 56.6 42 55.8C39.6 55 38.1333 54.3333 37.6 53.8C43.8667 46.6 49.3333 39.6667 54 33C50.2667 32.3333 47.1333 30.5333 44.6 27.6C42.0667 24.5333 40.8 20.9333 40.8 16.8Z" fill="#565D6D"/>
</svg>
