<svg width="69" height="66" viewBox="0 0 69 66" fill="none" xmlns="http://www.w3.org/2000/svg">
<path d="M4 65.6C3.2 64.9333 2.46667 63.8667 1.8 62.4C1.13334 60.9333 0.800003 59.4667 0.800003 58C2.4 53.3333 3.86667 48 5.2 42C6.66667 35.8667 7.4 29.0667 7.4 21.6C7.4 18.2667 7.2 14.8667 6.8 11.4C6.53333 7.93333 5.93333 4.26666 5 0.399987C11.4 0.79999 17.2 2.19999 22.4 4.59999C27.7333 6.86666 31.2667 9.66666 33 13C30.7333 25.1333 27.2667 35.6667 22.6 44.6C17.9333 53.5333 11.7333 60.5333 4 65.6ZM40 65.6C39.2 64.9333 38.4667 63.8667 37.8 62.4C37.1333 60.9333 36.8 59.4667 36.8 58C38.4 53.3333 39.8667 48 41.2 42C42.6667 35.8667 43.4 29.0667 43.4 21.6C43.4 18.2667 43.2 14.8667 42.8 11.4C42.5333 7.93333 41.9333 4.26666 41 0.399987C47.4 0.79999 53.2 2.19999 58.4 4.59999C63.7333 6.86666 67.2667 9.66666 69 13C66.7333 25.1333 63.2667 35.6667 58.6 44.6C53.9333 53.5333 47.7333 60.5333 40 65.6Z" fill="#BDC1CA"/>
</svg>
