<svg width="64" height="64" viewBox="0 0 64 64" fill="none" xmlns="http://www.w3.org/2000/svg">
<path d="M56.9624 19.7694L32.3471 8.28225C32.1272 8.17968 31.8728 8.17968 31.6529 8.28225L7.03752 19.7694C6.7487 19.904 6.56409 20.1936 6.56409 20.5128C6.56409 20.832 6.7487 21.1216 7.03752 21.2562L31.6529 32.7434C31.7629 32.7951 31.881 32.8205 32 32.8205C32.119 32.8205 32.2371 32.7951 32.3471 32.7434L41.0256 28.6933V49.7887L37.0757 55.3181C36.8976 55.5684 36.873 55.8966 37.0141 56.1707C37.1544 56.4439 37.4359 56.6154 37.7436 56.6154H45.9487C46.2564 56.6154 46.5378 56.4439 46.6781 56.1707C46.8184 55.8966 46.7947 55.5684 46.6166 55.3181L42.6667 49.7887V27.9278L56.9624 21.2562C57.2513 21.1216 57.4359 20.832 57.4359 20.5128C57.4359 20.1936 57.2513 19.904 56.9624 19.7694Z" fill="white"/>
<path d="M39.3847 31.2706L33.0413 34.231C32.718 34.3812 32.3578 34.4616 32.0001 34.4616C31.6423 34.4616 31.2821 34.3812 30.958 34.231L14.7693 26.6757L14.7693 40.2052C14.7693 44.8058 22.3377 48.4103 32.0001 48.4103C34.6618 48.4103 37.1553 48.1288 39.3847 47.6357V31.2706Z" fill="white"/>
<path d="M44.3077 28.9731L44.3077 45.9971C47.365 44.5235 49.2308 42.4878 49.2308 40.2051V26.6749L44.3077 28.9731Z" fill="white"/>
</svg>
