<svg width="64" height="64" viewBox="0 0 64 64" fill="none" xmlns="http://www.w3.org/2000/svg">
<path d="M37.7435 29.175C37.6356 29.1749 37.5287 29.1536 37.429 29.1122C37.3294 29.0708 37.2388 29.0102 37.1626 28.9337L27.739 19.4855C27.0291 18.8455 26.4585 18.0662 26.0626 17.1962C25.6668 16.3261 25.4542 15.384 25.438 14.4283C25.4219 13.4725 25.6025 12.5237 25.9687 11.6408C26.335 10.7579 26.879 9.9598 27.5668 9.29612C28.2547 8.63245 29.0718 8.1174 29.9672 7.78301C30.8627 7.44862 31.8174 7.30205 32.7719 7.3524C33.7264 7.40276 34.6604 7.64897 35.5157 8.07573C36.371 8.50248 37.1293 9.10064 37.7435 9.83302C38.358 9.09581 39.1181 8.49347 39.9762 8.06373C40.8343 7.634 41.7719 7.38614 42.7303 7.33569C43.6886 7.28524 44.6471 7.43328 45.5456 7.77054C46.444 8.10781 47.2632 8.62702 47.9516 9.29563C48.6401 9.96425 49.183 10.7679 49.5464 11.6561C49.9098 12.5443 50.0857 13.4981 50.0633 14.4575C50.0409 15.4169 49.8205 16.3614 49.4161 17.2317C49.0116 18.102 48.4317 18.8793 47.7128 19.5151L38.3245 28.9337C38.2483 29.0102 38.1577 29.0708 38.058 29.1122C37.9584 29.1536 37.8515 29.1749 37.7435 29.175Z" fill="white"/>
<path d="M57.0445 38.496C56.5945 37.6476 55.826 37.0128 54.908 36.731C53.99 36.4493 52.9977 36.5437 52.1493 36.9936C52.0927 37.0232 52.0377 37.0543 51.9852 37.0872L43.1154 42.281C42.7605 43.1449 42.1777 43.8962 41.4291 44.4547C40.6805 45.0132 39.7944 45.358 38.8652 45.4523L26.3696 46.7692C26.341 46.7725 26.3122 46.7741 26.2834 46.7741C26.0742 46.7722 25.8736 46.6905 25.7227 46.5456C25.5717 46.4008 25.4818 46.2037 25.4714 45.9948C25.4609 45.7858 25.5306 45.5807 25.6663 45.4215C25.802 45.2622 25.9934 45.1608 26.2014 45.138L26.2875 45.1282L38.6215 43.8301C39.5151 43.7359 40.3422 43.3142 40.9433 42.6464C41.5445 41.9786 41.8772 41.1119 41.8773 40.2133C41.8775 39.3114 41.5425 38.4417 40.9373 37.773C40.3321 37.1043 39.5 36.6844 38.6026 36.5948L26.4894 35.3846C25.8104 35.3164 25.1426 35.164 24.5013 34.9308L18.1333 32.6154C17.0188 32.2099 15.8296 32.0509 14.6478 32.1493L7.34519 32.7581C7.13959 32.7753 6.94798 32.8692 6.80854 33.0213C6.6691 33.1733 6.59207 33.3723 6.59278 33.5786L6.59278 47.5897C6.59278 47.8073 6.67923 48.016 6.8331 48.1699C6.98698 48.3238 7.19568 48.4102 7.41329 48.4102H10.2851C11.6234 48.4102 12.9414 48.7375 14.1243 49.3637L23.4953 54.3237C25.2834 55.2701 27.3581 55.5226 29.321 55.0326L44.9641 51.122C45.6254 50.9572 46.2452 50.6565 46.784 50.2392L55.9343 43.154C56.6356 42.6306 57.131 41.8775 57.3338 41.0263C57.5367 40.175 57.4343 39.2795 57.0445 38.496Z" fill="white"/>
</svg>
