<svg width="64" height="64" viewBox="0 0 64 64" fill="none" xmlns="http://www.w3.org/2000/svg">
<path d="M25.4359 28.718C32.4061 28.718 35.6463 32.8763 38.2506 36.2191C40.7983 39.4864 42.6371 41.8462 47.5897 41.8462C50.7216 41.8462 53.6919 40.5834 56.6154 38.0447V32C56.6045 25.7638 54.227 19.7641 49.9632 15.2132C45.6994 10.6623 39.8672 7.89934 33.6449 7.48261C27.4226 7.06588 21.2741 9.02642 16.4415 12.9681C11.6089 16.9098 8.45261 22.5389 7.61023 28.718L25.4359 28.718Z" fill="white"/>
<path d="M47.5898 43.4872C41.8355 43.4872 39.575 40.5875 36.9584 37.2299C34.3254 33.8502 31.6045 30.3589 25.4359 30.3589L7.44536 30.3589C7.40926 30.9021 7.38464 31.4478 7.38464 32C7.38464 32.2176 7.47109 32.4263 7.62497 32.5802C7.77884 32.734 7.98754 32.8205 8.20516 32.8205L22.981 32.8205C23.1451 46.8718 27.4806 56.6154 33.6411 56.6154C37.3227 56.6154 40.5736 52.946 42.5124 46.8373C41.9883 46.6678 41.4749 46.4669 40.9748 46.2359C39.2813 51.5692 36.5063 54.9743 33.6411 54.9743C29.239 54.9743 24.7951 47.3567 24.6302 32.8205H25.4359C30.4017 32.8205 32.5391 35.5635 35.0146 38.7397C37.6476 42.1185 40.6318 45.9487 47.5898 45.9487C50.6739 45.9842 53.6954 45.0773 56.2503 43.3493C56.3626 43.2744 56.4547 43.1728 56.5184 43.0537C56.5821 42.9347 56.6154 42.8017 56.6154 42.6666V40.1821C54.0669 42.2722 50.8854 43.4372 47.5898 43.4872Z" fill="white"/>
</svg>
